PathFileType	4	(X/Y/Z)	 s04c0201.trc
DataRate	CameraRate	NumFrames	NumMarkers	Units	OrigDataRate	OrigDataStartFrame	OrigNumFrames
200	200	6	51	mm	200	1	2000
Frame#	Time	racr			lacr			c7			jug			rlel			rdr			llel			ldr			s2			lic			ric			lasi			rasi			rpsi			lpsi			rgt			lgt			rth1			rth2			rth3			rth4			rlfc			rmfc			rsh1			rsh2			rsh3			rsh4			rlmal			rmmal			rcal			rtoe			rmt5			lth1			lth2			lth4			lth3			llfc			lmfc			lsh1			lsh2			lsh3			lsh4			llmal			lmmal			lcal			ltoe			lmt1			lmt5			SBIKE			LBIKE			RBIKE			
		X1	Y1	Z1	X2	Y2	Z2	X3	Y3	Z3	X4	Y4	Z4	X5	Y5	Z5	X6	Y6	Z6	X7	Y7	Z7	X8	Y8	Z8	X9	Y9	Z9	X10	Y10	Z10	X11	Y11	Z11	X12	Y12	Z12	X13	Y13	Z13	X14	Y14	Z14	X15	Y15	Z15	X16	Y16	Z16	X17	Y17	Z17	X18	Y18	Z18	X19	Y19	Z19	X20	Y20	Z20	X21	Y21	Z21	X22	Y22	Z22	X23	Y23	Z23	X24	Y24	Z24	X25	Y25	Z25	X26	Y26	Z26	X27	Y27	Z27	X28	Y28	Z28	X29	Y29	Z29	X30	Y30	Z30	X31	Y31	Z31	X32	Y32	Z32	X33	Y33	Z33	X34	Y34	Z34	X35	Y35	Z35	X36	Y36	Z36	X37	Y37	Z37	X38	Y38	Z38	X39	Y39	Z39	X40	Y40	Z40	X41	Y41	Z41	X42	Y42	Z42	X43	Y43	Z43	X44	Y44	Z44	X45	Y45	Z45	X46	Y46	Z46	X47	Y47	Z47	X48	Y48	Z48	X49	Y49	Z49	X50	Y50	Z50	X51	Y51	Z51	
1	0.0050	465.807796	1477.318090	-102.009681	476.688342	1477.825227	-398.077065	442.200910	1531.418488	-257.176177	467.890574	1383.113641	-254.969462	519.784804	1174.975619	3.033818	691.955833	941.992229	-64.494326	519.818549	1198.802731	-507.916702	648.914485	846.307783	-473.771534	-64.779327	1184.957675	-278.541193	104.644166	1196.500189	-422.223814	89.088915	1180.632154	-109.936274	132.997373	1145.297177	-377.839811	134.157241	1128.199360	-153.782528	-35.846176	1224.782437	-231.385330	-36.898146	1230.286564	-307.795321	34.886741	1119.908792	-98.720071	54.861738	1125.634492	-470.102941	117.922657	974.025459	-73.071501	178.303840	910.098769	-78.722233	202.004619	827.396160	-82.103727	207.806007	927.466616	-93.756674	257.057272	692.088976	-105.961365	240.133893	675.891013	-218.774509	191.229424	577.701441	-83.843785	179.291869	492.590138	-102.085780	119.160344	429.403144	-113.259537	207.879174	482.634430	-126.392498	62.601900	290.608509	-129.018391	89.137361	295.818298	-211.723130	-9.441718	280.059545	-171.440667	270.251556	173.075532	-149.915927	197.171089	170.886805	-97.704085	117.340182	1074.927263	-479.694761	203.031106	1068.157001	-488.377868	216.552864	1099.503703	-473.800015	275.648338	1017.819792	-501.469299	417.644197	937.450017	-487.514775	458.919842	922.939630	-380.094510	381.624556	827.032621	-501.231867	359.985316	746.917863	-471.999157	298.372086	683.513420	-462.368883	385.241333	740.049147	-442.800158	220.425681	563.485679	-438.951990	220.595721	572.418710	-351.358550	137.874804	549.759914	-391.935544	435.254084	503.936388	-402.405451	364.662728	489.131040	-350.487759	360.345128	474.406582	-462.606091	-179.218414	939.257442	-278.516227	-4.336312	85.604679	-483.887951	-15.861500	80.352576	-83.275918	
2	0.0100	465.795993	1477.294249	-102.024717	476.662181	1477.813402	-398.073995	442.190788	1531.388715	-257.168059	467.880844	1383.115313	-254.988119	519.788851	1174.988454	3.023942	691.965337	941.963854	-64.476178	519.800160	1198.796189	-507.914303	648.772135	846.555312	-473.597061	-64.769121	1184.962012	-278.549422	104.587211	1196.470748	-422.208699	89.090834	1180.666187	-109.938173	132.978629	1145.223488	-377.878441	134.158311	1128.207505	-153.733256	-35.766603	1224.777773	-231.439144	-36.854514	1230.302610	-307.842438	34.907077	1119.909207	-98.736362	54.859532	1125.635427	-470.102129	117.923904	973.978255	-73.094117	178.340305	910.104393	-78.732605	202.001587	827.436574	-82.100245	207.840819	927.473217	-93.739748	257.063945	692.088524	-105.961050	240.115297	675.879758	-218.778720	191.233496	577.686163	-83.842796	179.285898	492.574279	-102.091045	119.141093	429.406321	-113.270623	207.889762	482.645378	-126.406201	62.590264	290.624402	-129.028154	89.156249	295.789044	-211.745296	-9.455833	280.070090	-171.452504	270.238212	173.100316	-149.912668	197.161419	170.895990	-97.717968	117.351275	1074.945313	-479.705365	203.009018	1068.188273	-488.405419	216.559717	1099.510923	-473.808407	275.631388	1017.834327	-501.492823	417.646862	937.425162	-487.527032	458.895517	922.890548	-380.121644	381.617000	827.034075	-501.264659	359.984492	746.929447	-472.008040	298.374045	683.506280	-462.372914	385.233698	740.042486	-442.800373	220.442544	563.479259	-438.947405	220.591027	572.444579	-351.374793	137.895713	549.775642	-391.945090	435.260655	503.931651	-402.400075	364.683213	489.134691	-350.508987	360.346673	474.413807	-462.597109	-179.218619	939.263244	-278.517190	-4.361512	85.649731	-483.879686	-15.849642	80.340060	-83.302341	
3	0.0150	465.807504	1477.286535	-102.039915	476.664213	1477.822792	-398.077413	442.185391	1531.394534	-257.180042	467.849210	1383.109458	-254.972499	519.808122	1174.981033	3.005604	691.951202	941.968036	-64.484546	519.801361	1198.788258	-507.911760	648.783495	846.547567	-473.569670	-64.766539	1184.943929	-278.562186	104.582737	1196.462552	-422.219328	89.107953	1180.648676	-109.943961	132.996225	1145.242176	-377.910134	134.171738	1128.215192	-153.741915	-35.788691	1224.768897	-231.413950	-36.863161	1230.297881	-307.837618	34.913423	1119.902895	-98.742865	54.856123	1125.626347	-470.100654	117.918760	973.968870	-73.083401	178.352987	910.092004	-78.728983	202.005164	827.425753	-82.089886	207.846661	927.462546	-93.726534	257.059240	692.062954	-105.953954	240.093332	675.869606	-218.774761	191.229706	577.675322	-83.841781	179.272080	492.555837	-102.091900	119.134247	429.401974	-113.273087	207.853587	482.631452	-126.411368	62.566257	290.611284	-129.027455	89.084961	295.834870	-211.745069	-9.479282	280.061797	-171.457226	270.225762	173.111598	-149.908980	197.145757	170.908846	-97.716389	117.350876	1074.949616	-479.705795	203.009622	1068.193045	-488.427416	216.555232	1099.517159	-473.823463	275.640379	1017.830383	-501.494344	417.648980	937.432857	-487.536636	458.893450	922.896341	-380.126577	381.620519	827.046690	-501.282410	359.989492	746.936594	-472.014912	298.389094	683.505237	-462.371312	385.248679	740.060175	-442.816679	220.444975	563.477489	-438.955026	220.601669	572.431918	-351.353266	137.907047	549.774754	-391.937514	435.277456	503.923328	-402.413979	364.684351	489.110553	-350.456510	360.354135	474.404284	-462.599557	-179.218272	939.271337	-278.515598	-4.360179	85.647720	-483.890487	-15.861721	80.348984	-83.297489	
4	0.0200	465.809692	1477.301761	-102.030246	476.666096	1477.836494	-398.110489	442.181561	1531.437351	-257.213911	467.817685	1383.134015	-254.973886	519.801603	1174.987396	2.986478	691.944249	941.976663	-64.512714	519.962433	1198.628813	-507.464647	648.879906	846.487389	-473.679419	-64.879139	1184.852624	-278.623894	104.600054	1196.462717	-422.252498	89.066143	1180.595139	-109.929115	132.978365	1145.217849	-377.880825	134.058862	1128.368782	-153.832778	-35.791588	1224.769029	-231.414350	-36.881142	1230.274801	-307.818842	34.924660	1119.901401	-98.741594	54.858621	1125.621856	-470.101727	117.976009	973.993202	-73.119852	178.837327	909.511984	-78.671227	202.015858	827.405602	-82.088165	207.850178	927.435319	-93.743056	257.027464	692.062360	-105.938566	240.086130	675.856748	-218.777580	191.253273	577.657890	-83.866600	178.081128	491.700792	-102.997312	119.106273	429.403438	-113.255453	207.692644	482.479273	-126.591992	62.555520	290.566466	-128.898884	89.069531	295.777817	-211.753994	-9.517036	280.059234	-171.457875	270.204532	173.113509	-149.898952	197.136352	170.929603	-97.704712	117.524557	1075.209367	-479.966039	203.015328	1068.186562	-488.414975	216.536041	1099.779071	-474.127219	275.650212	1017.843986	-501.508543	417.591879	937.484685	-487.531985	458.926147	922.894892	-380.132702	381.619923	827.044339	-501.285070	360.044376	746.958090	-472.155661	298.518625	683.401162	-462.000661	385.343953	740.090955	-443.097611	220.703894	563.501562	-439.160478	220.518170	572.491559	-351.035218	137.921405	549.792026	-391.942629	435.300795	503.911209	-402.389619	364.705039	489.111479	-350.497172	360.378580	474.392779	-462.581937	-179.295686	939.296408	-278.792913	-4.356681	85.638696	-483.890751	-15.853723	80.360356	-83.290371	
5	0.0250	465.808204	1477.287989	-102.048722	476.632381	1477.813228	-398.109088	442.197083	1531.470787	-257.292702	467.845586	1383.131275	-254.990780	519.801971	1175.066199	3.019876	691.944913	941.964845	-64.537242	520.008214	1198.629368	-507.404671	648.812034	846.530486	-473.599362	-64.853324	1184.928404	-278.649485	104.566968	1196.433462	-422.275135	89.004497	1180.756877	-110.272627	132.944853	1145.367300	-377.877069	134.320750	1128.593997	-153.644611	-35.596109	1225.087636	-231.091869	-36.761655	1230.590512	-308.315851	34.961679	1120.056359	-98.702914	54.835957	1125.491010	-470.022448	117.973135	973.953560	-73.091341	179.016386	909.587497	-78.558933	202.074126	827.400625	-82.120058	207.846167	927.408100	-94.186291	257.061454	692.037195	-105.891067	240.073635	675.889615	-218.760247	191.237654	577.726863	-83.871729	178.125031	491.713280	-103.026075	119.089449	429.362856	-113.267189	207.744642	482.477386	-126.618521	62.573015	290.611353	-128.797106	89.142227	295.850551	-211.829705	-9.491883	280.109092	-171.455356	270.263671	173.161404	-149.988958	197.150867	170.959518	-97.747161	117.524567	1075.203238	-479.952303	202.994246	1068.074433	-488.331432	216.497735	1099.685739	-474.006865	275.633010	1017.808581	-501.426820	417.600780	937.466712	-487.494449	458.859337	922.844763	-380.165081	381.695128	826.994247	-501.005173	360.074965	746.958058	-472.161781	298.470695	683.413857	-461.947729	385.377291	740.081098	-443.111274	220.666863	563.475874	-439.083126	220.448387	572.468442	-351.114296	137.935607	549.803384	-392.023706	435.332171	503.914322	-402.411330	364.763351	489.137099	-350.464604	360.472424	474.366911	-462.534289	-179.290213	939.271977	-278.860265	-4.089602	85.894574	-483.673609	-15.865321	80.438925	-83.216612	
6	0.0300	465.808509	1477.276856	-102.079042	476.618659	1477.826176	-398.124109	442.176960	1531.461763	-257.260603	467.816894	1383.124650	-254.982111	519.851334	1175.084248	3.038955	691.934700	941.963297	-64.535429	520.012321	1198.639154	-507.416937	648.768037	846.503012	-473.574231	-64.847144	1184.922238	-278.638745	104.548604	1196.420586	-422.244971	89.156047	1180.715378	-110.199255	132.919480	1145.359167	-377.827749	134.224100	1128.395630	-153.796017	-35.706785	1225.096154	-231.175300	-36.728496	1230.546350	-308.202642	34.962056	1120.019413	-98.687935	54.911395	1125.604370	-470.026860	118.014698	973.988825	-73.039945	178.955318	909.567806	-78.562398	202.073885	827.406047	-82.115829	207.879537	927.349415	-94.152401	257.010537	692.018501	-105.907150	240.049932	675.825655	-218.797086	191.277528	577.651622	-83.915746	178.125234	491.697704	-103.022217	119.079880	429.340928	-113.291843	207.766012	482.493986	-126.604351	62.529883	290.558411	-128.865395	89.153996	295.870728	-211.841515	-9.519114	280.042157	-171.516325	270.241911	173.200352	-150.003450	197.137431	170.987422	-97.744215	117.520009	1075.192308	-479.950852	203.076208	1068.251612	-488.460918	216.604725	1099.829981	-474.189368	275.699204	1017.872883	-501.560215	417.668000	937.515063	-487.586875	458.937452	922.874138	-380.155183	381.770698	827.044443	-501.098498	360.093114	746.964412	-472.164708	298.548022	683.415016	-462.056358	385.391510	740.095450	-443.125976	220.685296	563.488062	-439.089042	220.564342	572.491038	-351.055313	137.959806	549.821842	-392.071725	435.326635	503.862742	-402.399937	364.770144	489.154635	-350.442121	360.466317	474.298563	-462.495334	-179.257546	939.313513	-278.728006	-4.136122	85.685332	-483.838884	-15.851282	80.402794	-83.253715	
